# xmcd
#
# Track frame offsets: 
#        150
#        12330
#        25667
#        39902
#        53220
#        67795
#        78782
#        92477
#        104990
#        118417
#        129445
#        143915
#        154907
#        166717
#        177767
#        189717
#        201190
#        213285
#        223177
#        235552
#
# Disc length: 3276 seconds
#
# Revision: 2
# Processed by: cddbd v1.5.2PL0 Copyright (c) Steve Scherf et al.
# Submitted via: ExactAudioCopy v1.0b1
#
DISCID=0e0cca14
DTITLE=Jimmy Witherspoon - Blowin' In From Kansas City
DYEAR=1991
DGENRE=Blues
TTITLE0=Love My Baby
TTITLE1=There Ain't Nothing Better
TTITLE2=Love And Friendship
TTITLE3=T.B. Blues
TTITLE4=Goin' Around In Circles
TTITLE5=Geneva Blues aka Evil Woman
TTITLE6=I'm Just A Country Boy
TTITLE7=Good Jumping aka Jump Children
TTITLE8=Slow Your Speed
TTITLE9=Blowin The Blues
TTITLE10=It's Raining Outside
TTITLE11=I'm Just A Lady's Man
TTITLE12=I'm Just Wandering (Part 1)
TTITLE13=I'm Just Wandering (Part 2)
TTITLE14=Who's Been Jivin' You
TTITLE15=Sweet Lovin' Baby
TTITLE16=Thelma Lee Blues
TTITLE17=The Doctor Knows His Business aka Doctor Blues
TTITLE18=Rain, Rain, Rain
TTITLE19=Baby, Baby
EXTD=
EXTT0=
EXTT1=
EXTT2=
EXTT3=
EXTT4=
EXTT5=
EXTT6=
EXTT7=
EXTT8=
EXTT9=
EXTT10=
EXTT11=
EXTT12=
EXTT13=
EXTT14=
EXTT15=
EXTT16=
EXTT17=
EXTT18=
EXTT19=
PLAYORDER=
